<svg version="1.1" id="Capa_1" xmlns="http://www.w3.org/2000/svg" xmlns:xlink="http://www.w3.org/1999/xlink" x="0px" y="0px"
	 viewBox="0 0 340 340" fill="rgb(255, 255, 255, 0.89)" xml:space="preserve">
<g>
	<path d="M149.256,200.741c-0.441-1.17-1.56-1.944-2.81-1.944c-0.002,0-0.004,0-0.006,0l-5.061,0.011
		c-1.252,0.002-2.372,0.782-2.808,1.956l-17.591,47.263c-0.343,0.922-0.213,1.954,0.348,2.761c0.562,0.808,1.483,1.29,2.467,1.29
		h4.578c1.255,0,2.377-0.779,2.815-1.956l5.203-13.978h15.205l5.272,13.989c0.441,1.17,1.56,1.944,2.81,1.944h4.585
		c0.006,0,0.011,0,0.017,0c1.658,0,3.003-1.344,3.003-3.003c0-0.485-0.115-0.944-0.32-1.349L149.256,200.741z M140.22,225.846
		l3.723-10.002l3.77,10.002H140.22z"/>
	<path d="M193.668,198.591h-19.023c-1.659,0-3.003,1.344-3.003,3.003v47.192c0,1.659,1.344,3.003,3.003,3.003h19.023
		c14.955,0,27.122-11.919,27.122-26.569C220.79,210.537,208.623,198.591,193.668,198.591z M193.668,241.493h-11.73v-32.605h11.73
		c9.278,0,16.826,7.327,16.826,16.333C210.494,234.193,202.945,241.493,193.668,241.493z"/>
	<path d="M338.935,70.83c-0.003-2.667-1.043-5.175-2.929-7.061L275.164,2.928C273.275,1.04,270.764,0,268.094,0H10.826
		C8.151,0,5.638,1.043,3.75,2.935c-1.89,1.892-2.928,4.408-2.923,7.082l0.524,292.2C1.351,323.051,18.299,340,39.132,340h262.257
		c20.835,0,37.785-16.952,37.785-37.793L338.935,70.83z M199.025,76.902c-5.896-1.785-15.761-4.771-15.761-16.14
		c0-8.569,7.228-14.327,17.984-14.327c4.652,0,9.732,1.419,13.257,3.704c1.345,0.872,2.27,2.215,2.605,3.782
		c0.335,1.567,0.039,3.171-0.833,4.516c-1.111,1.714-2.995,2.738-5.039,2.738c-1.157,0-2.284-0.334-3.259-0.966
		c-1.586-1.028-4.417-1.774-6.731-1.774c-2.314,0-5.984,0.632-5.984,2.327c0,1.862,0.562,2.633,7.237,4.654
		c5.727,1.733,15.311,4.635,15.23,15.484c0,6.97-5.462,14.01-17.666,14.01c-6.166,0-12.47-2.611-16.452-6.813
		c-1.102-1.164-1.686-2.687-1.642-4.289c0.043-1.602,0.707-3.092,1.871-4.194c1.12-1.06,2.585-1.644,4.126-1.644
		c1.641,0,3.229,0.683,4.356,1.873c1.738,1.834,4.849,3.067,7.741,3.067c2.785,0,5.666-0.769,5.666-2.055
		C205.742,79.615,205.747,78.936,199.025,76.902z M122.239,49.291c0.714-1.435,1.944-2.506,3.463-3.016
		c0.619-0.208,1.262-0.313,1.911-0.313c2.58,0,4.865,1.645,5.686,4.094l6.999,20.862l5.87-19.17
		c0.777-2.538,3.082-4.243,5.737-4.243c2.66,0.002,4.965,1.71,5.74,4.252l5.765,18.926l6.768-20.591
		c0.812-2.469,3.102-4.127,5.701-4.127c0.635,0,1.265,0.101,1.873,0.301c1.522,0.5,2.759,1.564,3.482,2.995
		c0.723,1.43,0.845,3.057,0.345,4.579l-12.686,38.594c-0.811,2.469-3.102,4.127-5.7,4.127l-0.081-0.001
		c-2.612-0.028-4.893-1.736-5.659-4.251l-5.562-18.261l-5.594,18.269c-0.767,2.503-3.04,4.208-5.657,4.243h-0.002
		c-2.661,0-4.945-1.644-5.767-4.091l-12.948-38.595C121.412,52.353,121.524,50.726,122.239,49.291z M83.434,52.806
		c0-3.309,2.691-6,6-6h23.475c3.309,0,6,2.691,6,6c0,3.309-2.691,6-6,6H95.434v5.635h18.537c3.309,0,6,2.691,6,6s-2.691,6-6,6
		H95.434v7.919h18.22c3.309,0,6,2.691,6,6s-2.691,6-6,6h-24.22c-3.309,0-6-2.691-6-6V52.806z M38.144,89.988V53.504
		c0-2.608,1.667-4.901,4.147-5.706c2.426-0.786,5.214,0.121,6.708,2.182l15.632,21.531V52.435c0-3.309,2.691-6,6-6
		c3.309,0,6,2.691,6,6v37.553c0,2.608-1.666,4.901-4.147,5.706c-0.599,0.195-1.223,0.294-1.853,0.294
		c-1.915,0-3.73-0.925-4.855-2.476L50.144,71.981v18.006c0,3.309-2.691,6-6,6C40.835,95.988,38.144,93.296,38.144,89.988z
		 M286.806,267.097c0,2.761-2.239,5-5,5H57.959c-2.761,0-5-2.239-5-5v-83.346c0-2.761,2.239-5,5-5h223.847c2.761,0,5,2.239,5,5
		V267.097z M282.232,151H57.768c-5.395,0-9.768-4.373-9.768-9.768c0-5.394,4.373-9.767,9.768-9.767h224.465
		c5.395,0,9.768,4.373,9.768,9.767C292,146.627,287.627,151,282.232,151z M305.316,81.149c-0.746,0.748-1.758,1.167-2.814,1.167
		h-44.043c-2.198,0-3.978-1.781-3.978-3.978V34.933c0-2.196,1.781-3.977,3.978-3.977h3.547c1.056,0,2.068,0.418,2.813,1.164
		l40.492,40.493c0.745,0.746,1.165,1.755,1.166,2.809l0.003,2.913C306.481,79.389,306.063,80.402,305.316,81.149z"/>
</g>
</svg>